<?xml version="1.0" encoding="UTF-8" standalone="no"?>
<!DOCTYPE svg PUBLIC "-//W3C//DTD SVG 1.1//EN" "http://www.w3.org/Graphics/SVG/1.1/DTD/svg11.dtd">
<svg width="100%" height="100%" viewBox="0 0 1654 1654" version="1.1" xmlns="http://www.w3.org/2000/svg" xmlns:xlink="http://www.w3.org/1999/xlink" xml:space="preserve" xmlns:serif="http://www.serif.com/" style="fill-rule:evenodd;clip-rule:evenodd;stroke-linecap:round;stroke-linejoin:round;stroke-miterlimit:1.5;">
    <g transform="matrix(14.0606,0,0,14.0606,-6808.22,-4625.3)">
        <rect x="484.205" y="328.954" width="117.601" height="117.601" style="fill:rgb(0,211,255);"/>
    </g>
    <g transform="matrix(1,0,0,1,-74.1087,363.22)">
        <g transform="matrix(1,0,0,1,3.28954,-161.188)">
            <rect x="484.205" y="328.954" width="117.601" height="117.601" style="fill:rgb(235,235,235);"/>
        </g>
        <g transform="matrix(1,0,0,1,3.28954,-43.5864)">
            <rect x="484.205" y="328.954" width="117.601" height="117.601" style="fill:rgb(235,235,235);"/>
        </g>
        <g transform="matrix(1,0,0,1,3.28954,74.0147)">
            <rect x="484.205" y="328.954" width="117.601" height="117.601" style="fill:rgb(235,235,235);"/>
        </g>
        <g transform="matrix(1,0,0,1,3.28954,191.616)">
            <rect x="484.205" y="328.954" width="117.601" height="117.601" style="fill:rgb(235,235,235);"/>
        </g>
        <g transform="matrix(1,0,0,1,3.28954,309.217)">
            <rect x="484.205" y="328.954" width="117.601" height="117.601" style="fill:rgb(235,235,235);"/>
        </g>
        <g transform="matrix(1,0,0,1,120.891,426.818)">
            <rect x="484.205" y="328.954" width="117.601" height="117.601" style="fill:rgb(235,235,235);"/>
        </g>
        <g transform="matrix(1,0,0,1,238.492,309.217)">
            <rect x="484.205" y="328.954" width="117.601" height="117.601" style="fill:rgb(235,235,235);"/>
        </g>
        <g transform="matrix(1,0,0,1,238.492,191.616)">
            <rect x="484.205" y="328.954" width="117.601" height="117.601" style="fill:rgb(235,235,235);"/>
        </g>
        <g transform="matrix(1,0,0,1,356.093,74.0147)">
            <rect x="484.205" y="328.954" width="117.601" height="117.601" style="fill:rgb(235,235,235);"/>
        </g>
        <g transform="matrix(1,0,0,1,356.093,-43.5864)">
            <rect x="484.205" y="328.954" width="117.601" height="117.601" style="fill:rgb(235,235,235);"/>
        </g>
        <g transform="matrix(1,0,0,1,473.694,191.616)">
            <rect x="484.205" y="328.954" width="117.601" height="117.601" style="fill:rgb(235,235,235);"/>
        </g>
        <g transform="matrix(1,0,0,1,473.694,309.217)">
            <rect x="484.205" y="328.954" width="117.601" height="117.601" style="fill:rgb(235,235,235);"/>
        </g>
        <g transform="matrix(1,0,0,1,591.295,426.818)">
            <rect x="484.205" y="328.954" width="117.601" height="117.601" style="fill:rgb(235,235,235);"/>
        </g>
        <g transform="matrix(1,0,0,1,708.896,309.217)">
            <rect x="484.205" y="328.954" width="117.601" height="117.601" style="fill:rgb(235,235,235);"/>
        </g>
        <g transform="matrix(1,0,0,1,708.896,191.616)">
            <rect x="484.205" y="328.954" width="117.601" height="117.601" style="fill:rgb(235,235,235);"/>
        </g>
        <g transform="matrix(1,0,0,1,708.896,74.0147)">
            <rect x="484.205" y="328.954" width="117.601" height="117.601" style="fill:rgb(235,235,235);"/>
        </g>
        <g transform="matrix(1,0,0,1,708.896,-43.5864)">
            <rect x="484.205" y="328.954" width="117.601" height="117.601" style="fill:rgb(235,235,235);"/>
        </g>
        <g transform="matrix(1,0,0,1,708.896,-161.188)">
            <rect x="484.205" y="328.954" width="117.601" height="117.601" style="fill:rgb(235,235,235);"/>
        </g>
        <g transform="matrix(1,0,0,1,3.28954,-278.789)">
            <rect x="484.205" y="328.954" width="117.601" height="117.601" style="fill:rgb(235,235,235);"/>
        </g>
        <g transform="matrix(1,0,0,1,708.896,-278.789)">
            <rect x="484.205" y="328.954" width="117.601" height="117.601" style="fill:rgb(235,235,235);"/>
        </g>
    </g>
    <g transform="matrix(1,0,0,1,-74.1087,363.22)">
        <path d="M487.495,50.166L487.495,755.772L605.096,755.772L605.096,873.374L722.697,873.374L722.697,755.772L840.298,755.772L840.298,520.57L957.899,520.57L957.899,755.772L1075.5,755.772L1075.5,873.374L1193.1,873.374L1193.1,755.772L1310.7,755.772L1310.7,50.166L1193.1,50.166L1193.1,755.772L1075.5,755.772L1075.5,520.57L957.899,520.57L957.899,285.368L840.298,285.368L840.298,520.57L722.697,520.57L722.697,755.772L605.096,755.772L605.096,50.166L487.495,50.166Z" style="fill:rgb(235,235,235);stroke:rgb(0,147,178);stroke-width:8.33px;"/>
    </g>
</svg>
